<?xml version="1.0" encoding="UTF-8" standalone="no"?>
<!DOCTYPE svg PUBLIC "-//W3C//DTD SVG 1.1//EN"
 "http://www.w3.org/Graphics/SVG/1.1/DTD/svg11.dtd">
<!-- Generated by graphviz version 2.38.0 (20140413.2041)
 -->
<!-- Title: controllers_diagram Pages: 1 -->
<svg width="652pt" height="715pt"
 viewBox="0.00 0.00 652.09 715.00" xmlns="http://www.w3.org/2000/svg" xmlns:xlink="http://www.w3.org/1999/xlink">
<g id="graph0" class="graph" transform="scale(1 1) rotate(0) translate(238.272 441.5)">
<title>controllers_diagram</title>
<polygon fill="none" stroke="none" points="-238.272,273.5 -238.272,-441.5 413.821,-441.5 413.821,273.5 -238.272,273.5"/>
<!-- _diagram_info -->
<g id="node1" class="node"><title>_diagram_info</title>
<text text-anchor="start" x="7.55029" y="156.9" font-family="Times,serif" font-size="13.00">Controllers diagram</text>
<text text-anchor="start" x="7.55029" y="169.9" font-family="Times,serif" font-size="13.00">Date: Jul 22 2016 &#45; 16:16</text>
<text text-anchor="start" x="7.55029" y="182.9" font-family="Times,serif" font-size="13.00">Migration version: 20160713181123</text>
<text text-anchor="start" x="7.55029" y="195.9" font-family="Times,serif" font-size="13.00">Generated by RailRoady 1.5.1</text>
<text text-anchor="start" x="7.55029" y="208.9" font-family="Times,serif" font-size="13.00">http://railroady.prestonlee.com</text>
</g>
<!-- ApplicationController -->
<g id="node2" class="node"><title>ApplicationController</title>
<path fill="none" stroke="black" d="M282.179,17C282.179,17 397.821,17 397.821,17 403.821,17 409.821,11 409.821,5 409.821,5 409.821,-63 409.821,-63 409.821,-69 403.821,-75 397.821,-75 397.821,-75 282.179,-75 282.179,-75 276.179,-75 270.179,-69 270.179,-63 270.179,-63 270.179,5 270.179,5 270.179,11 276.179,17 282.179,17"/>
<text text-anchor="middle" x="340" y="-59.8" font-family="Times,serif" font-size="14.00">ApplicationController</text>
<polyline fill="none" stroke="black" points="270.179,-53 409.821,-53 "/>
<polyline fill="none" stroke="black" points="270.179,-29 409.821,-29 "/>
<polyline fill="none" stroke="black" points="270.179,-5 409.821,-5 "/>
<text text-anchor="start" x="278.179" y="10.2" font-family="Times,serif" font-size="14.00">_layout</text>
</g>
<!-- BrokersController -->
<g id="node3" class="node"><title>BrokersController</title>
<path fill="none" stroke="black" d="M-221.935,-1C-221.935,-1 -128.065,-1 -128.065,-1 -122.065,-1 -116.065,-7 -116.065,-13 -116.065,-13 -116.065,-191 -116.065,-191 -116.065,-197 -122.065,-203 -128.065,-203 -128.065,-203 -221.935,-203 -221.935,-203 -227.935,-203 -233.935,-197 -233.935,-191 -233.935,-191 -233.935,-13 -233.935,-13 -233.935,-7 -227.935,-1 -221.935,-1"/>
<text text-anchor="middle" x="-175" y="-187.8" font-family="Times,serif" font-size="14.00">BrokersController</text>
<polyline fill="none" stroke="black" points="-233.935,-181 -116.065,-181 "/>
<text text-anchor="start" x="-225.935" y="-165.8" font-family="Times,serif" font-size="14.00">create</text>
<text text-anchor="start" x="-225.935" y="-151.8" font-family="Times,serif" font-size="14.00">destroy</text>
<text text-anchor="start" x="-225.935" y="-137.8" font-family="Times,serif" font-size="14.00">edit</text>
<text text-anchor="start" x="-225.935" y="-123.8" font-family="Times,serif" font-size="14.00">index</text>
<text text-anchor="start" x="-225.935" y="-109.8" font-family="Times,serif" font-size="14.00">new</text>
<text text-anchor="start" x="-225.935" y="-95.8" font-family="Times,serif" font-size="14.00">show</text>
<text text-anchor="start" x="-225.935" y="-81.8" font-family="Times,serif" font-size="14.00">update</text>
<polyline fill="none" stroke="black" points="-233.935,-75 -116.065,-75 "/>
<polyline fill="none" stroke="black" points="-233.935,-51 -116.065,-51 "/>
<text text-anchor="start" x="-225.935" y="-35.8" font-family="Times,serif" font-size="14.00">_layout</text>
<text text-anchor="start" x="-225.935" y="-21.8" font-family="Times,serif" font-size="14.00">broker_params</text>
<text text-anchor="start" x="-225.935" y="-7.8" font-family="Times,serif" font-size="14.00">set_broker</text>
</g>
<!-- ClientsController -->
<g id="node4" class="node"><title>ClientsController</title>
<path fill="none" stroke="black" d="M-221.607,233C-221.607,233 -132.393,233 -132.393,233 -126.393,233 -120.393,227 -120.393,221 -120.393,221 -120.393,43 -120.393,43 -120.393,37 -126.393,31 -132.393,31 -132.393,31 -221.607,31 -221.607,31 -227.607,31 -233.607,37 -233.607,43 -233.607,43 -233.607,221 -233.607,221 -233.607,227 -227.607,233 -221.607,233"/>
<text text-anchor="middle" x="-177" y="46.2" font-family="Times,serif" font-size="14.00">ClientsController</text>
<polyline fill="none" stroke="black" points="-233.607,53 -120.393,53 "/>
<text text-anchor="start" x="-225.607" y="68.2" font-family="Times,serif" font-size="14.00">create</text>
<text text-anchor="start" x="-225.607" y="82.2" font-family="Times,serif" font-size="14.00">destroy</text>
<text text-anchor="start" x="-225.607" y="96.2" font-family="Times,serif" font-size="14.00">edit</text>
<text text-anchor="start" x="-225.607" y="110.2" font-family="Times,serif" font-size="14.00">index</text>
<text text-anchor="start" x="-225.607" y="124.2" font-family="Times,serif" font-size="14.00">new</text>
<text text-anchor="start" x="-225.607" y="138.2" font-family="Times,serif" font-size="14.00">show</text>
<text text-anchor="start" x="-225.607" y="152.2" font-family="Times,serif" font-size="14.00">update</text>
<polyline fill="none" stroke="black" points="-233.607,159 -120.393,159 "/>
<polyline fill="none" stroke="black" points="-233.607,183 -120.393,183 "/>
<text text-anchor="start" x="-225.607" y="198.2" font-family="Times,serif" font-size="14.00">_layout</text>
<text text-anchor="start" x="-225.607" y="212.2" font-family="Times,serif" font-size="14.00">client_params</text>
<text text-anchor="start" x="-225.607" y="226.2" font-family="Times,serif" font-size="14.00">set_client</text>
</g>
<!-- DestinationsController -->
<g id="node5" class="node"><title>DestinationsController</title>
<path fill="none" stroke="black" d="M156.231,-145C156.231,-145 275.769,-145 275.769,-145 281.769,-145 287.769,-151 287.769,-157 287.769,-157 287.769,-335 287.769,-335 287.769,-341 281.769,-347 275.769,-347 275.769,-347 156.231,-347 156.231,-347 150.231,-347 144.231,-341 144.231,-335 144.231,-335 144.231,-157 144.231,-157 144.231,-151 150.231,-145 156.231,-145"/>
<text text-anchor="middle" x="216" y="-331.8" font-family="Times,serif" font-size="14.00">DestinationsController</text>
<polyline fill="none" stroke="black" points="144.231,-325 287.769,-325 "/>
<text text-anchor="start" x="152.231" y="-309.8" font-family="Times,serif" font-size="14.00">create</text>
<text text-anchor="start" x="152.231" y="-295.8" font-family="Times,serif" font-size="14.00">destroy</text>
<text text-anchor="start" x="152.231" y="-281.8" font-family="Times,serif" font-size="14.00">edit</text>
<text text-anchor="start" x="152.231" y="-267.8" font-family="Times,serif" font-size="14.00">index</text>
<text text-anchor="start" x="152.231" y="-253.8" font-family="Times,serif" font-size="14.00">new</text>
<text text-anchor="start" x="152.231" y="-239.8" font-family="Times,serif" font-size="14.00">show</text>
<text text-anchor="start" x="152.231" y="-225.8" font-family="Times,serif" font-size="14.00">update</text>
<polyline fill="none" stroke="black" points="144.231,-219 287.769,-219 "/>
<polyline fill="none" stroke="black" points="144.231,-195 287.769,-195 "/>
<text text-anchor="start" x="152.231" y="-179.8" font-family="Times,serif" font-size="14.00">_layout</text>
<text text-anchor="start" x="152.231" y="-165.8" font-family="Times,serif" font-size="14.00">destination_params</text>
<text text-anchor="start" x="152.231" y="-151.8" font-family="Times,serif" font-size="14.00">set_destination</text>
</g>
<!-- LineProductsController -->
<g id="node6" class="node"><title>LineProductsController</title>
<path fill="none" stroke="black" d="M101.9,89C101.9,89 226.1,89 226.1,89 232.1,89 238.1,83 238.1,77 238.1,77 238.1,-101 238.1,-101 238.1,-107 232.1,-113 226.1,-113 226.1,-113 101.9,-113 101.9,-113 95.8999,-113 89.8999,-107 89.8999,-101 89.8999,-101 89.8999,77 89.8999,77 89.8999,83 95.8999,89 101.9,89"/>
<text text-anchor="middle" x="164" y="-97.8" font-family="Times,serif" font-size="14.00">LineProductsController</text>
<polyline fill="none" stroke="black" points="89.8999,-91 238.1,-91 "/>
<text text-anchor="start" x="97.8999" y="-75.8" font-family="Times,serif" font-size="14.00">create</text>
<text text-anchor="start" x="97.8999" y="-61.8" font-family="Times,serif" font-size="14.00">destroy</text>
<text text-anchor="start" x="97.8999" y="-47.8" font-family="Times,serif" font-size="14.00">edit</text>
<text text-anchor="start" x="97.8999" y="-33.8" font-family="Times,serif" font-size="14.00">index</text>
<text text-anchor="start" x="97.8999" y="-19.8" font-family="Times,serif" font-size="14.00">new</text>
<text text-anchor="start" x="97.8999" y="-5.8" font-family="Times,serif" font-size="14.00">show</text>
<text text-anchor="start" x="97.8999" y="8.2" font-family="Times,serif" font-size="14.00">update</text>
<polyline fill="none" stroke="black" points="89.8999,15 238.1,15 "/>
<polyline fill="none" stroke="black" points="89.8999,39 238.1,39 "/>
<text text-anchor="start" x="97.8999" y="54.2" font-family="Times,serif" font-size="14.00">_layout</text>
<text text-anchor="start" x="97.8999" y="68.2" font-family="Times,serif" font-size="14.00">line_product_params</text>
<text text-anchor="start" x="97.8999" y="82.2" font-family="Times,serif" font-size="14.00">set_line_product</text>
</g>
<!-- ProductsController -->
<g id="node7" class="node"><title>ProductsController</title>
<path fill="none" stroke="black" d="M-222.272,-235C-222.272,-235 -123.728,-235 -123.728,-235 -117.728,-235 -111.728,-241 -111.728,-247 -111.728,-247 -111.728,-425 -111.728,-425 -111.728,-431 -117.728,-437 -123.728,-437 -123.728,-437 -222.272,-437 -222.272,-437 -228.272,-437 -234.272,-431 -234.272,-425 -234.272,-425 -234.272,-247 -234.272,-247 -234.272,-241 -228.272,-235 -222.272,-235"/>
<text text-anchor="middle" x="-173" y="-421.8" font-family="Times,serif" font-size="14.00">ProductsController</text>
<polyline fill="none" stroke="black" points="-234.272,-415 -111.728,-415 "/>
<text text-anchor="start" x="-226.272" y="-399.8" font-family="Times,serif" font-size="14.00">create</text>
<text text-anchor="start" x="-226.272" y="-385.8" font-family="Times,serif" font-size="14.00">destroy</text>
<text text-anchor="start" x="-226.272" y="-371.8" font-family="Times,serif" font-size="14.00">edit</text>
<text text-anchor="start" x="-226.272" y="-357.8" font-family="Times,serif" font-size="14.00">index</text>
<text text-anchor="start" x="-226.272" y="-343.8" font-family="Times,serif" font-size="14.00">new</text>
<text text-anchor="start" x="-226.272" y="-329.8" font-family="Times,serif" font-size="14.00">show</text>
<text text-anchor="start" x="-226.272" y="-315.8" font-family="Times,serif" font-size="14.00">update</text>
<polyline fill="none" stroke="black" points="-234.272,-309 -111.728,-309 "/>
<polyline fill="none" stroke="black" points="-234.272,-285 -111.728,-285 "/>
<text text-anchor="start" x="-226.272" y="-269.8" font-family="Times,serif" font-size="14.00">_layout</text>
<text text-anchor="start" x="-226.272" y="-255.8" font-family="Times,serif" font-size="14.00">product_params</text>
<text text-anchor="start" x="-226.272" y="-241.8" font-family="Times,serif" font-size="14.00">set_product</text>
</g>
<!-- SalesController -->
<g id="node8" class="node"><title>SalesController</title>
<path fill="none" stroke="black" d="M282.452,269C282.452,269 361.548,269 361.548,269 367.548,269 373.548,263 373.548,257 373.548,257 373.548,65 373.548,65 373.548,59 367.548,53 361.548,53 361.548,53 282.452,53 282.452,53 276.452,53 270.452,59 270.452,65 270.452,65 270.452,257 270.452,257 270.452,263 276.452,269 282.452,269"/>
<text text-anchor="middle" x="322" y="68.2" font-family="Times,serif" font-size="14.00">SalesController</text>
<polyline fill="none" stroke="black" points="270.452,75 373.548,75 "/>
<text text-anchor="start" x="278.452" y="90.2" font-family="Times,serif" font-size="14.00">create</text>
<text text-anchor="start" x="278.452" y="104.2" font-family="Times,serif" font-size="14.00">dashboard</text>
<text text-anchor="start" x="278.452" y="118.2" font-family="Times,serif" font-size="14.00">destroy</text>
<text text-anchor="start" x="278.452" y="132.2" font-family="Times,serif" font-size="14.00">edit</text>
<text text-anchor="start" x="278.452" y="146.2" font-family="Times,serif" font-size="14.00">index</text>
<text text-anchor="start" x="278.452" y="160.2" font-family="Times,serif" font-size="14.00">new</text>
<text text-anchor="start" x="278.452" y="174.2" font-family="Times,serif" font-size="14.00">show</text>
<text text-anchor="start" x="278.452" y="188.2" font-family="Times,serif" font-size="14.00">update</text>
<polyline fill="none" stroke="black" points="270.452,195 373.548,195 "/>
<polyline fill="none" stroke="black" points="270.452,219 373.548,219 "/>
<text text-anchor="start" x="278.452" y="234.2" font-family="Times,serif" font-size="14.00">_layout</text>
<text text-anchor="start" x="278.452" y="248.2" font-family="Times,serif" font-size="14.00">sale_params</text>
<text text-anchor="start" x="278.452" y="262.2" font-family="Times,serif" font-size="14.00">set_sale</text>
</g>
<!-- TypeDocsController -->
<g id="node9" class="node"><title>TypeDocsController</title>
<path fill="none" stroke="black" d="M-60.0527,-127C-60.0527,-127 46.0527,-127 46.0527,-127 52.0527,-127 58.0527,-133 58.0527,-139 58.0527,-139 58.0527,-317 58.0527,-317 58.0527,-323 52.0527,-329 46.0527,-329 46.0527,-329 -60.0527,-329 -60.0527,-329 -66.0527,-329 -72.0527,-323 -72.0527,-317 -72.0527,-317 -72.0527,-139 -72.0527,-139 -72.0527,-133 -66.0527,-127 -60.0527,-127"/>
<text text-anchor="middle" x="-7" y="-313.8" font-family="Times,serif" font-size="14.00">TypeDocsController</text>
<polyline fill="none" stroke="black" points="-72.0527,-307 58.0527,-307 "/>
<text text-anchor="start" x="-64.0527" y="-291.8" font-family="Times,serif" font-size="14.00">create</text>
<text text-anchor="start" x="-64.0527" y="-277.8" font-family="Times,serif" font-size="14.00">destroy</text>
<text text-anchor="start" x="-64.0527" y="-263.8" font-family="Times,serif" font-size="14.00">edit</text>
<text text-anchor="start" x="-64.0527" y="-249.8" font-family="Times,serif" font-size="14.00">index</text>
<text text-anchor="start" x="-64.0527" y="-235.8" font-family="Times,serif" font-size="14.00">new</text>
<text text-anchor="start" x="-64.0527" y="-221.8" font-family="Times,serif" font-size="14.00">show</text>
<text text-anchor="start" x="-64.0527" y="-207.8" font-family="Times,serif" font-size="14.00">update</text>
<polyline fill="none" stroke="black" points="-72.0527,-201 58.0527,-201 "/>
<polyline fill="none" stroke="black" points="-72.0527,-177 58.0527,-177 "/>
<text text-anchor="start" x="-64.0527" y="-161.8" font-family="Times,serif" font-size="14.00">_layout</text>
<text text-anchor="start" x="-64.0527" y="-147.8" font-family="Times,serif" font-size="14.00">set_type_doc</text>
<text text-anchor="start" x="-64.0527" y="-133.8" font-family="Times,serif" font-size="14.00">type_doc_params</text>
</g>
<!-- TypeProductsController -->
<g id="node10" class="node"><title>TypeProductsController</title>
<path fill="none" stroke="black" d="M-78.1665,107C-78.1665,107 48.1665,107 48.1665,107 54.1665,107 60.1665,101 60.1665,95 60.1665,95 60.1665,-83 60.1665,-83 60.1665,-89 54.1665,-95 48.1665,-95 48.1665,-95 -78.1665,-95 -78.1665,-95 -84.1665,-95 -90.1665,-89 -90.1665,-83 -90.1665,-83 -90.1665,95 -90.1665,95 -90.1665,101 -84.1665,107 -78.1665,107"/>
<text text-anchor="middle" x="-15" y="-79.8" font-family="Times,serif" font-size="14.00">TypeProductsController</text>
<polyline fill="none" stroke="black" points="-90.1665,-73 60.1665,-73 "/>
<text text-anchor="start" x="-82.1665" y="-57.8" font-family="Times,serif" font-size="14.00">create</text>
<text text-anchor="start" x="-82.1665" y="-43.8" font-family="Times,serif" font-size="14.00">destroy</text>
<text text-anchor="start" x="-82.1665" y="-29.8" font-family="Times,serif" font-size="14.00">edit</text>
<text text-anchor="start" x="-82.1665" y="-15.8" font-family="Times,serif" font-size="14.00">index</text>
<text text-anchor="start" x="-82.1665" y="-1.8" font-family="Times,serif" font-size="14.00">new</text>
<text text-anchor="start" x="-82.1665" y="12.2" font-family="Times,serif" font-size="14.00">show</text>
<text text-anchor="start" x="-82.1665" y="26.2" font-family="Times,serif" font-size="14.00">update</text>
<polyline fill="none" stroke="black" points="-90.1665,33 60.1665,33 "/>
<polyline fill="none" stroke="black" points="-90.1665,57 60.1665,57 "/>
<text text-anchor="start" x="-82.1665" y="72.2" font-family="Times,serif" font-size="14.00">_layout</text>
<text text-anchor="start" x="-82.1665" y="86.2" font-family="Times,serif" font-size="14.00">set_type_product</text>
<text text-anchor="start" x="-82.1665" y="100.2" font-family="Times,serif" font-size="14.00">type_product_params</text>
</g>
</g>
</svg>
