<?xml version="1.0" encoding="UTF-8" standalone="no"?>
<!DOCTYPE svg PUBLIC "-//W3C//DTD SVG 1.1//EN"
 "http://www.w3.org/Graphics/SVG/1.1/DTD/svg11.dtd">
<!-- Generated by graphviz version 2.38.0 (20140413.2041)
 -->
<!-- Title: models_diagram Pages: 1 -->
<svg width="1320pt" height="688pt"
 viewBox="0.00 0.00 1319.72 688.00" xmlns="http://www.w3.org/2000/svg" xmlns:xlink="http://www.w3.org/1999/xlink">
<g id="graph0" class="graph" transform="scale(1 1) rotate(0) translate(4 684)">
<title>models_diagram</title>
<polygon fill="none" stroke="none" points="-4,4 -4,-684 1315.72,-684 1315.72,4 -4,4"/>
<!-- _diagram_info -->
<g id="node1" class="node"><title>_diagram_info</title>
<text text-anchor="start" x="581.413" y="-658.6" font-family="Times,serif" font-size="13.00">Models diagram</text>
<text text-anchor="start" x="581.413" y="-645.6" font-family="Times,serif" font-size="13.00">Date: Jul 22 2016 &#45; 16:16</text>
<text text-anchor="start" x="581.413" y="-632.6" font-family="Times,serif" font-size="13.00">Migration version: 20160713181123</text>
<text text-anchor="start" x="581.413" y="-619.6" font-family="Times,serif" font-size="13.00">Generated by RailRoady 1.5.1</text>
<text text-anchor="start" x="581.413" y="-606.6" font-family="Times,serif" font-size="13.00">http://railroady.prestonlee.com</text>
</g>
<!-- Broker -->
<g id="node2" class="node"><title>Broker</title>
<path fill="none" stroke="black" d="M12,-298.5C12,-298.5 235.725,-298.5 235.725,-298.5 241.725,-298.5 247.725,-304.5 247.725,-310.5 247.725,-310.5 247.725,-386.5 247.725,-386.5 247.725,-392.5 241.725,-398.5 235.725,-398.5 235.725,-398.5 12,-398.5 12,-398.5 6,-398.5 0,-392.5 0,-386.5 0,-386.5 0,-310.5 0,-310.5 0,-304.5 6,-298.5 12,-298.5"/>
<text text-anchor="middle" x="123.862" y="-383.3" font-family="Times,serif" font-size="14.00">Broker</text>
<polyline fill="none" stroke="black" points="0,-376.5 247.725,-376.5 "/>
<text text-anchor="start" x="8" y="-361.3" font-family="Times,serif" font-size="14.00">id :integer</text>
<text text-anchor="start" x="8" y="-347.3" font-family="Times,serif" font-size="14.00">name :character varying</text>
<text text-anchor="start" x="8" y="-333.3" font-family="Times,serif" font-size="14.00">code :integer</text>
<text text-anchor="start" x="8" y="-319.3" font-family="Times,serif" font-size="14.00">created_at :timestamp without time zone</text>
<text text-anchor="start" x="8" y="-305.3" font-family="Times,serif" font-size="14.00">updated_at :timestamp without time zone</text>
</g>
<!-- Sale -->
<g id="node7" class="node"><title>Sale</title>
<path fill="none" stroke="black" d="M544,-0.5C544,-0.5 767.725,-0.5 767.725,-0.5 773.725,-0.5 779.725,-6.5 779.725,-12.5 779.725,-12.5 779.725,-228.5 779.725,-228.5 779.725,-234.5 773.725,-240.5 767.725,-240.5 767.725,-240.5 544,-240.5 544,-240.5 538,-240.5 532,-234.5 532,-228.5 532,-228.5 532,-12.5 532,-12.5 532,-6.5 538,-0.5 544,-0.5"/>
<text text-anchor="middle" x="655.862" y="-225.3" font-family="Times,serif" font-size="14.00">Sale</text>
<polyline fill="none" stroke="black" points="532,-218.5 779.725,-218.5 "/>
<text text-anchor="start" x="540" y="-203.3" font-family="Times,serif" font-size="14.00">id :integer</text>
<text text-anchor="start" x="540" y="-189.3" font-family="Times,serif" font-size="14.00">number_doc :integer</text>
<text text-anchor="start" x="540" y="-175.3" font-family="Times,serif" font-size="14.00">sale_note :integer</text>
<text text-anchor="start" x="540" y="-161.3" font-family="Times,serif" font-size="14.00">quantity :double precision</text>
<text text-anchor="start" x="540" y="-147.3" font-family="Times,serif" font-size="14.00">um :character varying</text>
<text text-anchor="start" x="540" y="-133.3" font-family="Times,serif" font-size="14.00">price :double precision</text>
<text text-anchor="start" x="540" y="-119.3" font-family="Times,serif" font-size="14.00">sale_clause :character varying</text>
<text text-anchor="start" x="540" y="-105.3" font-family="Times,serif" font-size="14.00">date_doc :date</text>
<text text-anchor="start" x="540" y="-91.3" font-family="Times,serif" font-size="14.00">type_doc_id :integer</text>
<text text-anchor="start" x="540" y="-77.3" font-family="Times,serif" font-size="14.00">destination_id :integer</text>
<text text-anchor="start" x="540" y="-63.3" font-family="Times,serif" font-size="14.00">broker_id :integer</text>
<text text-anchor="start" x="540" y="-49.3" font-family="Times,serif" font-size="14.00">product_id :integer</text>
<text text-anchor="start" x="540" y="-35.3" font-family="Times,serif" font-size="14.00">client_id :integer</text>
<text text-anchor="start" x="540" y="-21.3" font-family="Times,serif" font-size="14.00">created_at :timestamp without time zone</text>
<text text-anchor="start" x="540" y="-7.3" font-family="Times,serif" font-size="14.00">updated_at :timestamp without time zone</text>
</g>
<!-- Broker&#45;&gt;Sale -->
<g id="edge1" class="edge"><title>Broker&#45;&gt;Sale</title>
<path fill="none" stroke="#617fd2" d="M220.128,-294.8C232.387,-288.585 244.846,-282.504 256.862,-277 343.736,-237.209 443.95,-198.177 522.212,-169.172"/>
<ellipse fill="none" stroke="#617fd2" cx="216.501" cy="-296.652" rx="4.00002" ry="4.00002"/>
<polygon fill="#617fd2" stroke="#617fd2" points="522.265,-169.153 533.205,-169.906 526.955,-167.419 531.645,-165.685 531.645,-165.685 531.645,-165.685 526.955,-167.419 530.085,-161.465 522.265,-169.153 522.265,-169.153"/>
</g>
<!-- Client -->
<g id="node3" class="node"><title>Client</title>
<path fill="none" stroke="black" d="M278,-298.5C278,-298.5 501.725,-298.5 501.725,-298.5 507.725,-298.5 513.725,-304.5 513.725,-310.5 513.725,-310.5 513.725,-386.5 513.725,-386.5 513.725,-392.5 507.725,-398.5 501.725,-398.5 501.725,-398.5 278,-398.5 278,-398.5 272,-398.5 266,-392.5 266,-386.5 266,-386.5 266,-310.5 266,-310.5 266,-304.5 272,-298.5 278,-298.5"/>
<text text-anchor="middle" x="389.862" y="-383.3" font-family="Times,serif" font-size="14.00">Client</text>
<polyline fill="none" stroke="black" points="266,-376.5 513.725,-376.5 "/>
<text text-anchor="start" x="274" y="-361.3" font-family="Times,serif" font-size="14.00">id :integer</text>
<text text-anchor="start" x="274" y="-347.3" font-family="Times,serif" font-size="14.00">name :character varying</text>
<text text-anchor="start" x="274" y="-333.3" font-family="Times,serif" font-size="14.00">rut :integer</text>
<text text-anchor="start" x="274" y="-319.3" font-family="Times,serif" font-size="14.00">created_at :timestamp without time zone</text>
<text text-anchor="start" x="274" y="-305.3" font-family="Times,serif" font-size="14.00">updated_at :timestamp without time zone</text>
</g>
<!-- Client&#45;&gt;Sale -->
<g id="edge2" class="edge"><title>Client&#45;&gt;Sale</title>
<path fill="none" stroke="#59fc3a" d="M453.793,-293.183C475.037,-275.134 499.535,-254.32 523.982,-233.548"/>
<ellipse fill="none" stroke="#59fc3a" cx="450.629" cy="-295.871" rx="4.00002" ry="4.00002"/>
<polygon fill="#59fc3a" stroke="#59fc3a" points="524.293,-233.284 534.828,-230.239 528.103,-230.047 531.914,-226.81 531.914,-226.81 531.914,-226.81 528.103,-230.047 529,-223.38 524.293,-233.284 524.293,-233.284"/>
</g>
<!-- Destination -->
<g id="node4" class="node"><title>Destination</title>
<path fill="none" stroke="black" d="M544,-277.5C544,-277.5 767.725,-277.5 767.725,-277.5 773.725,-277.5 779.725,-283.5 779.725,-289.5 779.725,-289.5 779.725,-407.5 779.725,-407.5 779.725,-413.5 773.725,-419.5 767.725,-419.5 767.725,-419.5 544,-419.5 544,-419.5 538,-419.5 532,-413.5 532,-407.5 532,-407.5 532,-289.5 532,-289.5 532,-283.5 538,-277.5 544,-277.5"/>
<text text-anchor="middle" x="655.862" y="-404.3" font-family="Times,serif" font-size="14.00">Destination</text>
<polyline fill="none" stroke="black" points="532,-397.5 779.725,-397.5 "/>
<text text-anchor="start" x="540" y="-382.3" font-family="Times,serif" font-size="14.00">id :integer</text>
<text text-anchor="start" x="540" y="-368.3" font-family="Times,serif" font-size="14.00">name :character varying</text>
<text text-anchor="start" x="540" y="-354.3" font-family="Times,serif" font-size="14.00">created_at :timestamp without time zone</text>
<text text-anchor="start" x="540" y="-340.3" font-family="Times,serif" font-size="14.00">updated_at :timestamp without time zone</text>
<text text-anchor="start" x="540" y="-326.3" font-family="Times,serif" font-size="14.00">cod :character varying</text>
<text text-anchor="start" x="540" y="-312.3" font-family="Times,serif" font-size="14.00">cod_iso :character varying</text>
<text text-anchor="start" x="540" y="-298.3" font-family="Times,serif" font-size="14.00">continent :character varying</text>
<text text-anchor="start" x="540" y="-284.3" font-family="Times,serif" font-size="14.00">region :character varying</text>
</g>
<!-- Destination&#45;&gt;Sale -->
<g id="edge3" class="edge"><title>Destination&#45;&gt;Sale</title>
<path fill="none" stroke="#4731c4" d="M655.862,-269.202C655.862,-263.279 655.862,-257.216 655.862,-251.086"/>
<ellipse fill="none" stroke="#4731c4" cx="655.862" cy="-273.231" rx="4" ry="4"/>
<polygon fill="#4731c4" stroke="#4731c4" points="655.862,-250.72 660.362,-240.72 655.862,-245.72 655.862,-240.72 655.862,-240.72 655.862,-240.72 655.862,-245.72 651.362,-240.72 655.862,-250.72 655.862,-250.72"/>
</g>
<!-- LineProduct -->
<g id="node5" class="node"><title>LineProduct</title>
<path fill="none" stroke="black" d="M810,-456.5C810,-456.5 1033.72,-456.5 1033.72,-456.5 1039.72,-456.5 1045.72,-462.5 1045.72,-468.5 1045.72,-468.5 1045.72,-544.5 1045.72,-544.5 1045.72,-550.5 1039.72,-556.5 1033.72,-556.5 1033.72,-556.5 810,-556.5 810,-556.5 804,-556.5 798,-550.5 798,-544.5 798,-544.5 798,-468.5 798,-468.5 798,-462.5 804,-456.5 810,-456.5"/>
<text text-anchor="middle" x="921.862" y="-541.3" font-family="Times,serif" font-size="14.00">LineProduct</text>
<polyline fill="none" stroke="black" points="798,-534.5 1045.72,-534.5 "/>
<text text-anchor="start" x="806" y="-519.3" font-family="Times,serif" font-size="14.00">id :integer</text>
<text text-anchor="start" x="806" y="-505.3" font-family="Times,serif" font-size="14.00">name :character varying</text>
<text text-anchor="start" x="806" y="-491.3" font-family="Times,serif" font-size="14.00">type_product_id :integer</text>
<text text-anchor="start" x="806" y="-477.3" font-family="Times,serif" font-size="14.00">created_at :timestamp without time zone</text>
<text text-anchor="start" x="806" y="-463.3" font-family="Times,serif" font-size="14.00">updated_at :timestamp without time zone</text>
</g>
<!-- Product -->
<g id="node6" class="node"><title>Product</title>
<path fill="none" stroke="black" d="M810,-284.5C810,-284.5 1033.72,-284.5 1033.72,-284.5 1039.72,-284.5 1045.72,-290.5 1045.72,-296.5 1045.72,-296.5 1045.72,-400.5 1045.72,-400.5 1045.72,-406.5 1039.72,-412.5 1033.72,-412.5 1033.72,-412.5 810,-412.5 810,-412.5 804,-412.5 798,-406.5 798,-400.5 798,-400.5 798,-296.5 798,-296.5 798,-290.5 804,-284.5 810,-284.5"/>
<text text-anchor="middle" x="921.862" y="-397.3" font-family="Times,serif" font-size="14.00">Product</text>
<polyline fill="none" stroke="black" points="798,-390.5 1045.72,-390.5 "/>
<text text-anchor="start" x="806" y="-375.3" font-family="Times,serif" font-size="14.00">id :integer</text>
<text text-anchor="start" x="806" y="-361.3" font-family="Times,serif" font-size="14.00">cod :integer</text>
<text text-anchor="start" x="806" y="-347.3" font-family="Times,serif" font-size="14.00">cond_long :integer</text>
<text text-anchor="start" x="806" y="-333.3" font-family="Times,serif" font-size="14.00">name :character varying</text>
<text text-anchor="start" x="806" y="-319.3" font-family="Times,serif" font-size="14.00">line_product_id :integer</text>
<text text-anchor="start" x="806" y="-305.3" font-family="Times,serif" font-size="14.00">created_at :timestamp without time zone</text>
<text text-anchor="start" x="806" y="-291.3" font-family="Times,serif" font-size="14.00">updated_at :timestamp without time zone</text>
</g>
<!-- LineProduct&#45;&gt;Product -->
<g id="edge4" class="edge"><title>LineProduct&#45;&gt;Product</title>
<path fill="none" stroke="#b1d456" d="M921.862,-447.89C921.862,-439.708 921.862,-431.205 921.862,-422.776"/>
<ellipse fill="none" stroke="#b1d456" cx="921.862" cy="-452.141" rx="4" ry="4"/>
<polygon fill="#b1d456" stroke="#b1d456" points="921.862,-422.558 926.362,-412.558 921.862,-417.558 921.862,-412.558 921.862,-412.558 921.862,-412.558 921.862,-417.558 917.362,-412.558 921.862,-422.558 921.862,-422.558"/>
</g>
<!-- Product&#45;&gt;Sale -->
<g id="edge5" class="edge"><title>Product&#45;&gt;Sale</title>
<path fill="none" stroke="#7f0bf8" d="M841.2,-278.967C824.282,-264.593 806.02,-249.077 787.785,-233.584"/>
<ellipse fill="none" stroke="#7f0bf8" cx="844.364" cy="-281.656" rx="4.00002" ry="4.00002"/>
<polygon fill="#7f0bf8" stroke="#7f0bf8" points="787.596,-233.424 782.889,-223.52 783.786,-230.187 779.975,-226.949 779.975,-226.949 779.975,-226.949 783.786,-230.187 777.061,-230.379 787.596,-233.424 787.596,-233.424"/>
</g>
<!-- TypeDoc -->
<g id="node8" class="node"><title>TypeDoc</title>
<path fill="none" stroke="black" d="M1076,-291.5C1076,-291.5 1299.72,-291.5 1299.72,-291.5 1305.72,-291.5 1311.72,-297.5 1311.72,-303.5 1311.72,-303.5 1311.72,-393.5 1311.72,-393.5 1311.72,-399.5 1305.72,-405.5 1299.72,-405.5 1299.72,-405.5 1076,-405.5 1076,-405.5 1070,-405.5 1064,-399.5 1064,-393.5 1064,-393.5 1064,-303.5 1064,-303.5 1064,-297.5 1070,-291.5 1076,-291.5"/>
<text text-anchor="middle" x="1187.86" y="-390.3" font-family="Times,serif" font-size="14.00">TypeDoc</text>
<polyline fill="none" stroke="black" points="1064,-383.5 1311.72,-383.5 "/>
<text text-anchor="start" x="1072" y="-368.3" font-family="Times,serif" font-size="14.00">id :integer</text>
<text text-anchor="start" x="1072" y="-354.3" font-family="Times,serif" font-size="14.00">cod_sii :integer</text>
<text text-anchor="start" x="1072" y="-340.3" font-family="Times,serif" font-size="14.00">name :character varying</text>
<text text-anchor="start" x="1072" y="-326.3" font-family="Times,serif" font-size="14.00">positive :boolean</text>
<text text-anchor="start" x="1072" y="-312.3" font-family="Times,serif" font-size="14.00">created_at :timestamp without time zone</text>
<text text-anchor="start" x="1072" y="-298.3" font-family="Times,serif" font-size="14.00">updated_at :timestamp without time zone</text>
</g>
<!-- TypeDoc&#45;&gt;Sale -->
<g id="edge6" class="edge"><title>TypeDoc&#45;&gt;Sale</title>
<path fill="none" stroke="#a545bc" d="M1077.4,-287.714C1069.82,-283.993 1062.26,-280.387 1054.86,-277 967.989,-237.209 867.775,-198.177 789.513,-169.172"/>
<ellipse fill="none" stroke="#a545bc" cx="1081.4" cy="-289.694" rx="4.00002" ry="4.00002"/>
<polygon fill="#a545bc" stroke="#a545bc" points="789.459,-169.153 781.64,-161.465 784.769,-167.419 780.08,-165.685 780.08,-165.685 780.08,-165.685 784.769,-167.419 778.519,-169.906 789.459,-169.153 789.459,-169.153"/>
</g>
<!-- TypeProduct -->
<g id="node9" class="node"><title>TypeProduct</title>
<path fill="none" stroke="black" d="M810,-593.5C810,-593.5 1033.72,-593.5 1033.72,-593.5 1039.72,-593.5 1045.72,-599.5 1045.72,-605.5 1045.72,-605.5 1045.72,-667.5 1045.72,-667.5 1045.72,-673.5 1039.72,-679.5 1033.72,-679.5 1033.72,-679.5 810,-679.5 810,-679.5 804,-679.5 798,-673.5 798,-667.5 798,-667.5 798,-605.5 798,-605.5 798,-599.5 804,-593.5 810,-593.5"/>
<text text-anchor="middle" x="921.862" y="-664.3" font-family="Times,serif" font-size="14.00">TypeProduct</text>
<polyline fill="none" stroke="black" points="798,-657.5 1045.72,-657.5 "/>
<text text-anchor="start" x="806" y="-642.3" font-family="Times,serif" font-size="14.00">id :integer</text>
<text text-anchor="start" x="806" y="-628.3" font-family="Times,serif" font-size="14.00">name :character varying</text>
<text text-anchor="start" x="806" y="-614.3" font-family="Times,serif" font-size="14.00">created_at :timestamp without time zone</text>
<text text-anchor="start" x="806" y="-600.3" font-family="Times,serif" font-size="14.00">updated_at :timestamp without time zone</text>
</g>
<!-- TypeProduct&#45;&gt;LineProduct -->
<g id="edge7" class="edge"><title>TypeProduct&#45;&gt;LineProduct</title>
<path fill="none" stroke="#4e504d" d="M921.862,-585.167C921.862,-579.196 921.862,-573.058 921.862,-566.975"/>
<ellipse fill="none" stroke="#4e504d" cx="921.862" cy="-589.233" rx="4" ry="4"/>
<polygon fill="#4e504d" stroke="#4e504d" points="921.862,-566.828 926.362,-556.828 921.862,-561.828 921.862,-556.828 921.862,-556.828 921.862,-556.828 921.862,-561.828 917.362,-556.828 921.862,-566.828 921.862,-566.828"/>
</g>
</g>
</svg>
