<?xml version="1.0" encoding="UTF-8" standalone="no"?>
<!DOCTYPE svg PUBLIC "-//W3C//DTD SVG 1.1//EN"
 "http://www.w3.org/Graphics/SVG/1.1/DTD/svg11.dtd">
<!-- Generated by graphviz version 2.38.0 (20140413.2041)
 -->
<!-- Title: models_diagram Pages: 1 -->
<svg width="474pt" height="297pt"
 viewBox="0.00 0.00 474.06 297.00" xmlns="http://www.w3.org/2000/svg" xmlns:xlink="http://www.w3.org/1999/xlink">
<g id="graph0" class="graph" transform="scale(1 1) rotate(0) translate(4 293)">
<title>models_diagram</title>
<polygon fill="none" stroke="none" points="-4,4 -4,-293 470.057,-293 470.057,4 -4,4"/>
<!-- _diagram_info -->
<g id="node1" class="node"><title>_diagram_info</title>
<text text-anchor="start" x="53.2141" y="-274.6" font-family="Times,serif" font-size="13.00">Models diagram</text>
<text text-anchor="start" x="53.2141" y="-261.6" font-family="Times,serif" font-size="13.00">Date: Jul 22 2016 &#45; 16:16</text>
<text text-anchor="start" x="53.2141" y="-248.6" font-family="Times,serif" font-size="13.00">Migration version: 20160713181123</text>
<text text-anchor="start" x="53.2141" y="-235.6" font-family="Times,serif" font-size="13.00">Generated by RailRoady 1.5.1</text>
<text text-anchor="start" x="53.2141" y="-222.6" font-family="Times,serif" font-size="13.00">http://railroady.prestonlee.com</text>
</g>
<!-- Broker -->
<g id="node2" class="node"><title>Broker</title>
<ellipse fill="none" stroke="black" cx="34.6638" cy="-90" rx="34.8285" ry="18"/>
<text text-anchor="middle" x="34.6638" y="-85.8" font-family="Times,serif" font-size="14.00">Broker</text>
</g>
<!-- Sale -->
<g id="node7" class="node"><title>Sale</title>
<ellipse fill="none" stroke="black" cx="219.664" cy="-18" rx="27" ry="18"/>
<text text-anchor="middle" x="219.664" y="-13.8" font-family="Times,serif" font-size="14.00">Sale</text>
</g>
<!-- Broker&#45;&gt;Sale -->
<g id="edge1" class="edge"><title>Broker&#45;&gt;Sale</title>
<path fill="none" stroke="#c9046b" d="M69.0979,-75.3188C71.9929,-74.1892 74.8773,-73.0708 77.6638,-72 115.017,-57.647 158.1,-41.6442 186.924,-31.0163"/>
<ellipse fill="none" stroke="#c9046b" cx="65.1939" cy="-76.8497" rx="4.00001" ry="4.00001"/>
<polygon fill="#c9046b" stroke="#c9046b" points="187.108,-30.9485 198.047,-31.7156 191.8,-29.2207 196.492,-27.4928 196.492,-27.4928 196.492,-27.4928 191.8,-29.2207 194.937,-23.27 187.108,-30.9485 187.108,-30.9485"/>
</g>
<!-- Client -->
<g id="node3" class="node"><title>Client</title>
<ellipse fill="none" stroke="black" cx="118.664" cy="-90" rx="31.948" ry="18"/>
<text text-anchor="middle" x="118.664" y="-85.8" font-family="Times,serif" font-size="14.00">Client</text>
</g>
<!-- Client&#45;&gt;Sale -->
<g id="edge2" class="edge"><title>Client&#45;&gt;Sale</title>
<path fill="none" stroke="#8df391" d="M144.924,-70.7996C159.818,-60.4772 178.399,-47.5991 193.309,-37.266"/>
<ellipse fill="none" stroke="#8df391" cx="141.425" cy="-73.2247" rx="4.00002" ry="4.00002"/>
<polygon fill="#8df391" stroke="#8df391" points="193.388,-37.211 204.17,-35.2132 197.498,-34.3628 201.607,-31.5146 201.607,-31.5146 201.607,-31.5146 197.498,-34.3628 199.044,-27.816 193.388,-37.211 193.388,-37.211"/>
</g>
<!-- Destination -->
<g id="node4" class="node"><title>Destination</title>
<ellipse fill="none" stroke="black" cx="219.664" cy="-90" rx="50.7569" ry="18"/>
<text text-anchor="middle" x="219.664" y="-85.8" font-family="Times,serif" font-size="14.00">Destination</text>
</g>
<!-- Destination&#45;&gt;Sale -->
<g id="edge3" class="edge"><title>Destination&#45;&gt;Sale</title>
<path fill="none" stroke="#cd4bd8" d="M219.664,-63.6398C219.664,-58.0629 219.664,-52.1319 219.664,-46.4761"/>
<ellipse fill="none" stroke="#cd4bd8" cx="219.664" cy="-67.6966" rx="4" ry="4"/>
<polygon fill="#cd4bd8" stroke="#cd4bd8" points="219.664,-46.1043 224.164,-36.1043 219.664,-41.1043 219.664,-36.1043 219.664,-36.1043 219.664,-36.1043 219.664,-41.1043 215.164,-36.1044 219.664,-46.1043 219.664,-46.1043"/>
</g>
<!-- LineProduct -->
<g id="node5" class="node"><title>LineProduct</title>
<ellipse fill="none" stroke="black" cx="325.664" cy="-162" rx="53.6471" ry="18"/>
<text text-anchor="middle" x="325.664" y="-157.8" font-family="Times,serif" font-size="14.00">LineProduct</text>
</g>
<!-- Product -->
<g id="node6" class="node"><title>Product</title>
<ellipse fill="none" stroke="black" cx="325.664" cy="-90" rx="37.7352" ry="18"/>
<text text-anchor="middle" x="325.664" y="-85.8" font-family="Times,serif" font-size="14.00">Product</text>
</g>
<!-- LineProduct&#45;&gt;Product -->
<g id="edge4" class="edge"><title>LineProduct&#45;&gt;Product</title>
<path fill="none" stroke="#fd7801" d="M325.664,-135.64C325.664,-130.063 325.664,-124.132 325.664,-118.476"/>
<ellipse fill="none" stroke="#fd7801" cx="325.664" cy="-139.697" rx="4" ry="4"/>
<polygon fill="#fd7801" stroke="#fd7801" points="325.664,-118.104 330.164,-108.104 325.664,-113.104 325.664,-108.104 325.664,-108.104 325.664,-108.104 325.664,-113.104 321.164,-108.104 325.664,-118.104 325.664,-118.104"/>
</g>
<!-- Product&#45;&gt;Sale -->
<g id="edge5" class="edge"><title>Product&#45;&gt;Sale</title>
<path fill="none" stroke="#7d7e1b" d="M297.332,-70.2903C281.705,-59.9704 262.395,-47.2185 246.938,-37.0114"/>
<ellipse fill="none" stroke="#7d7e1b" cx="301.13" cy="-72.7984" rx="4.00002" ry="4.00002"/>
<polygon fill="#7d7e1b" stroke="#7d7e1b" points="246.685,-36.844 240.82,-27.5783 242.512,-34.0887 238.34,-31.3334 238.34,-31.3334 238.34,-31.3334 242.512,-34.0887 235.86,-35.0885 246.685,-36.844 246.685,-36.844"/>
</g>
<!-- TypeDoc -->
<g id="node8" class="node"><title>TypeDoc</title>
<ellipse fill="none" stroke="black" cx="423.664" cy="-90" rx="42.2868" ry="18"/>
<text text-anchor="middle" x="423.664" y="-85.8" font-family="Times,serif" font-size="14.00">TypeDoc</text>
</g>
<!-- TypeDoc&#45;&gt;Sale -->
<g id="edge6" class="edge"><title>TypeDoc&#45;&gt;Sale</title>
<path fill="none" stroke="#0bdd99" d="M383.987,-75.3852C345.693,-62.2455 288.397,-42.585 252.568,-30.2907"/>
<ellipse fill="none" stroke="#0bdd99" cx="388.005" cy="-76.7642" rx="4.00001" ry="4.00001"/>
<polygon fill="#0bdd99" stroke="#0bdd99" points="252.524,-30.2756 244.526,-22.7735 247.795,-28.6527 243.065,-27.0299 243.065,-27.0299 243.065,-27.0299 247.795,-28.6527 241.605,-31.2863 252.524,-30.2756 252.524,-30.2756"/>
</g>
<!-- TypeProduct -->
<g id="node9" class="node"><title>TypeProduct</title>
<ellipse fill="none" stroke="black" cx="325.664" cy="-252.5" rx="55.3415" ry="18"/>
<text text-anchor="middle" x="325.664" y="-248.3" font-family="Times,serif" font-size="14.00">TypeProduct</text>
</g>
<!-- TypeProduct&#45;&gt;LineProduct -->
<g id="edge7" class="edge"><title>TypeProduct&#45;&gt;LineProduct</title>
<path fill="none" stroke="#9436cd" d="M325.664,-226.189C325.664,-214.971 325.664,-201.752 325.664,-190.311"/>
<ellipse fill="none" stroke="#9436cd" cx="325.664" cy="-230.436" rx="4" ry="4"/>
<polygon fill="#9436cd" stroke="#9436cd" points="325.664,-190.011 330.164,-180.011 325.664,-185.011 325.664,-180.011 325.664,-180.011 325.664,-180.011 325.664,-185.011 321.164,-180.011 325.664,-190.011 325.664,-190.011"/>
</g>
</g>
</svg>
